<?xml version="1.0" encoding="UTF-8"?>
<svg width="24px" height="24px" viewBox="0 0 24 24" version="1.1" xmlns="http://www.w3.org/2000/svg" xmlns:xlink="http://www.w3.org/1999/xlink">
    <!-- Generator: Sketch 46.2 (44496) - http://www.bohemiancoding.com/sketch -->
    <title>Group 9</title>
    <desc>Created with Sketch.</desc>
    <defs></defs>
    <g id="Page-1" stroke="none" stroke-width="1" fill="none" fill-rule="evenodd">
        <g id="Home-Option-01-Copy" transform="translate(-1048.000000, -6533.000000)" fill="#494949">
            <g id="Group-9" transform="translate(1048.000000, 6533.000000)">
                <path d="M19.7899806,5.41227544 C19.7899806,6.19224801 19.1654063,6.82450416 18.3949672,6.82450416 C17.6245743,6.82450416 17,6.19224801 17,5.41227544 C17,4.63230287 17.6245743,4 18.3949672,4 C19.1654063,4 19.7899806,4.63230287 19.7899806,5.41227544" id="Fill-5-Copy"></path>
                <path d="M11.9695645,15.9663265 C9.82944576,15.9663265 8.09457352,14.2099868 8.09457352,12.0434326 C8.09457352,9.87683179 9.82944576,8.12049203 11.9695645,8.12049203 C14.1096371,8.12049203 15.8445094,9.87683179 15.8445094,12.0434326 C15.8445094,14.2099868 14.1096371,15.9663265 11.9695645,15.9663265 Z M11.9695645,6 C8.67263354,6 6,8.70570503 6,12.0434326 C6,15.3811135 8.67263354,18.0868186 11.9695645,18.0868186 C15.2664493,18.0868186 17.9390829,15.3811135 17.9390829,12.0434326 C17.9390829,8.70570503 15.2664493,6 11.9695645,6 L11.9695645,6 Z" id="Fill-4"></path>
                <path d="M11.6249268,0 C8.46776947,0 8.07189041,0.0135476788 6.83197082,0.0708216587 C5.59463535,0.12795549 4.74957961,0.326919504 4.01015008,0.617867585 C3.24570988,0.918579337 2.59741698,1.32099211 1.95110831,1.97525157 C1.30484579,2.62955773 0.907351656,3.2858727 0.610315466,4.05977217 C0.322923607,4.8083515 0.126391506,5.66386405 0.0699560144,6.91651046 C0.0133820872,8.17177298 0,8.57255069 0,11.7687751 C0,14.9649528 0.0133820872,15.3657306 0.0699560144,16.6209931 C0.126391506,17.8736395 0.322923607,18.729152 0.610315466,19.4777314 C0.907351656,20.2516308 1.30484579,20.9079458 1.95110831,21.562252 C2.59741698,22.2165114 3.24570988,22.6189242 4.01015008,22.9196827 C4.74957961,23.210584 5.59463535,23.409548 6.83197082,23.4666819 C8.07189041,23.5239559 8.46776947,23.5375035 11.6249268,23.5375035 C14.7820381,23.5375035 15.1779171,23.5239559 16.4178367,23.4666819 C17.6551722,23.409548 18.5002279,23.210584 19.2396575,22.9196827 C20.0040977,22.6189242 20.6523906,22.2165114 21.2986992,21.562252 C21.9449618,20.9079458 22.3424559,20.2516308 22.6395382,19.4777314 C22.9268839,18.729152 23.123416,17.8736395 23.1798515,16.6209931 C23.2364255,15.3657306 23.2498076,14.9649528 23.2498076,11.7687751 C23.2498076,8.57255069 23.2364255,8.17177298 23.1798515,6.91651046 C23.123416,5.66386405 22.9268839,4.8083515 22.6395382,4.05977217 C22.3424559,3.2858727 21.9449618,2.62955773 21.2986992,1.97525157 C20.6523906,1.32099211 20.0040977,0.918579337 19.2396575,0.617867585 C18.5002279,0.326919504 17.6551722,0.12795549 16.4178367,0.0708216587 C15.1779171,0.0135476788 14.7820381,0 11.6249268,0 Z M11.6249268,2.12049203 C14.7288789,2.12049203 15.0965633,2.13249807 16.3223625,2.18911803 C17.4557791,2.2414401 18.071309,2.43316311 18.4809393,2.59433377 C19.0235598,2.8078265 19.4108098,3.06284988 19.8175791,3.47469931 C20.2243945,3.88650203 20.4763008,4.27854382 20.687184,4.82787884 C20.8463847,5.24257796 21.0357643,5.86572447 21.0874468,7.01316614 C21.1433747,8.25413352 21.155234,8.62636767 21.155234,11.7687751 C21.155234,14.9111359 21.1433747,15.28337 21.0874468,16.5243374 C21.0357643,17.6717791 20.8463847,18.2949256 20.687184,18.7096247 C20.4763008,19.2589597 20.2243945,19.6510015 19.8175791,20.0628042 C19.4108098,20.4746537 19.0235598,20.729677 18.4809393,20.9431698 C18.071309,21.1043404 17.4557791,21.2960634 16.3223625,21.3483855 C15.0967479,21.4050055 14.7291096,21.4170115 11.6249268,21.4170115 C8.52069793,21.4170115 8.15310584,21.4050055 6.92744509,21.3483855 C5.79402845,21.2960634 5.17849858,21.1043404 4.76886828,20.9431698 C4.22624771,20.729677 3.8389978,20.4746537 3.43222849,20.0628042 C3.02545919,19.6510015 2.77350679,19.2589597 2.56262355,18.7096247 C2.40342286,18.2949256 2.21404325,17.6717791 2.16236071,16.5243374 C2.10643281,15.28337 2.09457352,14.9111359 2.09457352,11.7687751 C2.09457352,8.62636767 2.10643281,8.25413352 2.16236071,7.01316614 C2.21404325,5.86572447 2.40342286,5.24257796 2.56262355,4.82787884 C2.77350679,4.27854382 3.02541304,3.88650203 3.43222849,3.47469931 C3.8389978,3.06284988 4.22624771,2.8078265 4.76886828,2.59433377 C5.17849858,2.43316311 5.79402845,2.2414401 6.92744509,2.18911803 C8.15324427,2.13249807 8.52092865,2.12049203 11.6249268,2.12049203 L11.6249268,2.12049203 Z" id="Fill-1"></path>
            </g>
        </g>
    </g>
</svg>