<?xml version="1.0" encoding="UTF-8"?>
<svg width="22px" height="22px" viewBox="0 0 22 22" version="1.1" xmlns="http://www.w3.org/2000/svg" xmlns:xlink="http://www.w3.org/1999/xlink">
    <!-- Generator: Sketch 46.2 (44496) - http://www.bohemiancoding.com/sketch -->
    <title>Fill 11</title>
    <desc>Created with Sketch.</desc>
    <defs></defs>
    <g id="Page-1" stroke="none" stroke-width="1" fill="none" fill-rule="evenodd">
        <g id="Home-Option-01-Copy" transform="translate(-1126.000000, -6534.000000)" fill="#494949">
            <path d="M1137,6534 C1130.92456,6534 1126,6538.92456 1126,6545 C1126,6549.65988 1128.89919,6553.6405 1132.99119,6555.24306 C1132.89494,6554.37269 1132.80831,6553.03756 1133.02969,6552.08744 C1133.22906,6551.22944 1134.31944,6546.61975 1134.31944,6546.61975 C1134.31944,6546.61975 1133.99013,6545.96112 1133.99013,6544.98694 C1133.99013,6543.45725 1134.877,6542.31531 1135.98044,6542.31531 C1136.91888,6542.31531 1137.37262,6543.02 1137.37262,6543.86494 C1137.37262,6544.80887 1136.77175,6546.21962 1136.46169,6547.52725 C1136.2025,6548.62244 1137.01031,6549.5155 1138.09037,6549.5155 C1140.04562,6549.5155 1141.5485,6547.45369 1141.5485,6544.47819 C1141.5485,6541.84437 1139.65581,6540.00256 1136.95325,6540.00256 C1133.82375,6540.00256 1131.98675,6542.35037 1131.98675,6544.77656 C1131.98675,6545.72188 1132.35044,6546.73594 1132.80488,6547.28662 C1132.89494,6547.39594 1132.908,6547.49081 1132.88119,6547.60219 C1132.798,6547.95006 1132.61237,6548.69669 1132.57594,6548.85 C1132.52781,6549.05075 1132.41644,6549.09406 1132.20813,6548.99712 C1130.83381,6548.35706 1129.97512,6546.34887 1129.97512,6544.73531 C1129.97512,6541.2655 1132.49619,6538.07894 1137.24338,6538.07894 C1141.059,6538.07894 1144.02488,6540.798 1144.02488,6544.43213 C1144.02488,6548.223 1141.63444,6551.27412 1138.31656,6551.27412 C1137.20213,6551.27412 1136.15438,6550.69456 1135.7955,6550.0105 C1135.7955,6550.0105 1135.24412,6552.11081 1135.11006,6552.62575 C1134.86188,6553.58069 1134.19156,6554.77831 1133.74263,6555.50913 C1134.7725,6555.82812 1135.86631,6556 1137,6556 C1143.07544,6556 1148,6551.07475 1148,6545 C1148,6538.92456 1143.07544,6534 1137,6534" id="Fill-11"></path>
        </g>
    </g>
</svg>