<?xml version="1.0" encoding="UTF-8"?>
<svg width="261px" height="134px" viewBox="0 0 261 134" version="1.1" xmlns="http://www.w3.org/2000/svg" xmlns:xlink="http://www.w3.org/1999/xlink">
    <!-- Generator: Sketch 47 (45396) - http://www.bohemiancoding.com/sketch -->
    <title>404 ICON</title>
    <desc>Created with Sketch.</desc>
    <defs></defs>
    <g id="Page-1" stroke="none" stroke-width="1" fill="none" fill-rule="evenodd">
        <g id="404" transform="translate(-593.000000, -335.000000)">
            <g id="404-ICON" transform="translate(599.000000, 335.000000)">
                <path d="M179,66.5 C178.997015,54.6344962 169.186658,45.0029298 157.097564,45 L134.166815,45 C132.969993,45 132,45.9521701 132,47.1270014 C132,48.3018328 132.969993,49.2540029 134.166815,49.2540029 L157.097564,49.2540029 C161.94902,49.2554677 166.32891,51.1832459 169.516456,54.3092935 C172.701016,57.4397356 174.666371,61.7376848 174.666371,66.5 C174.667863,71.2535259 172.665201,75.599816 169.516456,78.6907065 C166.366218,81.7830619 161.938574,83.747462 157.097564,83.7459971 L134.166815,83.7459971 C132.969993,83.7459971 132,84.6981672 132,85.8729986 C132,87.0478299 132.969993,88 134.166815,88 L157.097564,88 C163.144349,87.9985351 168.652416,85.5551203 172.58014,81.6995639 C176.509357,77.8440076 178.998508,72.4356817 179,66.5 Z" id="Shape" fill="#9B9B9B" fill-rule="nonzero"></path>
                <path d="M95.9027106,88 L118.834503,88 C120.031421,88 121,87.0477002 121,85.8741738 C121,84.6991823 120.029929,83.7483475 118.834503,83.7483475 L95.9027106,83.7483475 C91.0508632,83.7468825 86.6706196,81.8188416 83.482817,78.692368 C80.2979994,75.5614991 78.3324863,71.2629642 78.3324863,66.5 C78.3309939,61.7458262 80.3338174,57.3989438 83.482817,54.307632 C86.6333091,51.2148552 91.0613101,49.2501874 95.9027106,49.2516525 L118.834503,49.2516525 C120.031421,49.2516525 121,48.2993526 121,47.1258262 C121,45.9508348 120.029929,45 118.834503,45 L95.9027106,45 C89.8554372,45.0014651 84.3469264,47.4452129 80.4188851,51.3012947 C76.4908438,55.1573765 74.0014924,60.5649744 74,66.5014651 C74.0014924,78.3656559 83.8141336,87.9970698 95.9027106,88 Z" id="Shape" fill="#9B9B9B" fill-rule="nonzero"></path>
                <path d="M152.584595,21.5901879 L148.572805,25.6323019 C147.800673,26.4107327 147.81029,27.6635835 148.594787,28.4311081 C149.379285,29.1986326 150.641899,29.1877264 151.415405,28.4092957 L155.427195,24.3671816 C156.199327,23.5887509 156.18971,22.3359 155.405213,21.5683755 C154.620715,20.8022142 153.358101,20.8117571 152.584595,21.5901879 Z" id="Shape" fill="#9B9B9B" fill-rule="nonzero"></path>
                <path d="M125.072335,18.9999139 C126.146641,18.9892501 127.009301,17.991424 126.999924,16.7696583 L126.888743,2.19225663 C126.879366,0.972014319 126.001971,-0.0105778069 124.927665,8.59836552e-05 C123.853359,0.0107497742 122.990699,1.00857589 123.000076,2.2303416 L123.109918,16.8077432 C123.119294,18.0295089 123.998029,19.0105777 125.072335,18.9999139 Z" id="Shape" fill="#9B9B9B" fill-rule="nonzero"></path>
                <path d="M101.584595,28.409774 C102.356727,29.188255 103.620715,29.1977986 104.405213,28.4315878 C105.18971,27.6653771 105.199327,26.4124454 104.427195,25.632601 L100.415405,21.590226 C99.6432732,20.811745 98.3792846,20.8022014 97.5947874,21.5684122 C96.8102901,22.3346229 96.8006728,23.5875546 97.572805,24.367399 L101.584595,28.409774 Z" id="Shape" fill="#9B9B9B" fill-rule="nonzero"></path>
                <path d="M101.584595,105.591135 L97.572805,109.632732 C96.8006728,110.411064 96.8102901,111.663754 97.5947874,112.431181 C98.3792846,113.198607 99.6418993,113.187702 100.415405,112.409371 L104.427195,108.367774 C105.199327,107.589442 105.18971,106.336752 104.405213,105.569325 C103.620715,104.801899 102.358101,104.81144 101.584595,105.591135 Z" id="Shape" fill="#9B9B9B" fill-rule="nonzero"></path>
                <path d="M125.071689,133.999914 C126.146355,133.98925 127.009304,132.991424 126.999924,131.769658 L126.890046,117.192257 C126.880666,115.970491 126.002977,114.989422 124.928311,115.000086 C123.853645,115.01075 122.990696,116.008576 123.000076,117.230342 L123.109954,131.807743 C123.119334,133.027986 123.997023,134.010578 125.071689,133.999914 Z" id="Shape" fill="#9B9B9B" fill-rule="nonzero"></path>
                <path d="M155.405213,112.431588 C156.18971,111.665377 156.199327,110.412445 155.427195,109.632601 L151.415405,105.590226 C150.643273,104.811745 149.379285,104.802201 148.594787,105.568412 C147.81029,106.334623 147.800673,107.587555 148.572805,108.367399 L152.584595,112.409774 C153.358101,113.188255 154.620715,113.197799 155.405213,112.431588 Z" id="Shape" fill="#9B9B9B" fill-rule="nonzero"></path>
                <polyline id="Path-14" stroke="#979797" stroke-width="5" points="39 105.50813 39 44 0 86 62.5 86"></polyline>
                <polyline id="Path-14-Copy" stroke="#979797" stroke-width="5" points="231 105.50813 231 44 192 86 254.5 86"></polyline>
            </g>
        </g>
    </g>
</svg>