<?xml version="1.0" encoding="UTF-8"?>
<svg width="31px" height="21px" viewBox="0 0 31 21" version="1.1" xmlns="http://www.w3.org/2000/svg" xmlns:xlink="http://www.w3.org/1999/xlink">
    <!-- Generator: Sketch 47 (45396) - http://www.bohemiancoding.com/sketch -->
    <title>Group 2</title>
    <desc>Created with Sketch.</desc>
    <defs></defs>
    <g id="Page-1" stroke="none" stroke-width="1" fill="none" fill-rule="evenodd" fill-opacity="0.809980752">
        <g id="PLP-Filter-Expanded" transform="translate(-603.000000, -751.000000)" fill="#6A6A6A">
            <g id="Group-2" transform="translate(603.000000, 751.000000)">
                <g id="Group">
                    <path d="M9.32225025,20.7404551 C5.89503817,20.3088236 2.99005783,18.2613167 1.44867286,15.1909497 C0.432576628,13.1669329 0.094480587,10.9368833 0.465420151,8.70550628 C0.817321705,6.58865189 1.82728755,4.61214531 3.3225362,3.11412064 C4.21812485,2.21686982 4.88298892,1.72841498 5.93908985,1.19182161 C8.14457474,0.071238541 10.5838498,-0.186291689 13.0101932,0.445278836 C13.6888614,0.621934279 14.1721733,0.807037574 14.9046888,1.17084984 L15.5051922,1.469097 L16.0074097,1.21046789 C18.8969416,-0.277569393 22.3591631,-0.25373577 25.2291728,1.27394951 C26.1740582,1.77690467 26.8964111,2.32281448 27.696514,3.1386118 C28.5729015,4.03219003 29.1041748,4.78940838 29.6451056,5.91591861 C30.0993482,6.86189769 30.3793628,7.75000043 30.5521875,8.79284803 C30.6590711,9.43779831 30.698462,10.7875034 30.6304015,11.4728057 C30.3039304,14.7600517 28.50785,17.6470326 25.7356336,19.3405511 C24.6539937,20.0013137 23.5200538,20.4254913 22.2004536,20.6629707 C21.5783196,20.774932 20.2317143,20.8168266 19.5375188,20.7458184 C18.3165478,20.6209273 17.0486475,20.2388901 15.9430833,19.6627617 L15.4946889,19.4290957 L15.0569686,19.661112 C14.1921548,20.1195127 13.1762747,20.4660533 12.1578179,20.6500815 C11.666513,20.7388567 11.4492714,20.7549696 10.6021941,20.7654606 C10.0606793,20.7721669 9.48470474,20.7609164 9.32225025,20.7404534 L9.32225025,20.7404551 Z M11.7049146,19.5899636 C12.5114133,19.4730239 13.4249978,19.200899 14.1929918,18.8488523 C14.4130103,18.7479965 14.4467743,18.7199439 14.3997591,18.6770616 C14.3688535,18.6488734 14.1929285,18.4974792 14.0088134,18.3406302 C11.6680856,16.3465453 10.3161935,13.218504 10.4388787,10.0804245 C10.5445964,7.3763278 11.6003297,4.93779266 13.4786686,3.05910787 C13.722056,2.81567552 14.0373604,2.52597089 14.1793437,2.41531982 C14.3213274,2.30466841 14.4385152,2.20227482 14.4397609,2.18777793 C14.444047,2.13788882 13.4764234,1.74418839 13.0159002,1.6084468 C12.0011702,1.30935034 11.1937715,1.20559485 10.1503637,1.2402087 C8.23281995,1.30382115 6.5305038,1.92269597 4.95981771,3.12722567 C4.52137729,3.4634577 3.73175439,4.24899369 3.39994555,4.67902515 C1.82625916,6.71855616 1.1580426,9.2180612 1.50568772,11.7646131 C1.93821546,14.9329427 4.08127366,17.7523424 6.98383163,18.9716393 C8.49425238,19.6061315 10.1225874,19.8193962 11.7049146,19.5899636 Z M21.1764986,19.6557714 C23.3331996,19.489269 25.2447071,18.6233078 26.793083,17.1113167 C29.6423985,14.3289569 30.3940521,10.0099323 28.6580966,6.39489487 C27.2761243,3.51700977 24.5658856,1.59717703 21.4157556,1.26468954 C20.8620724,1.20624964 19.740057,1.23842233 19.1726445,1.32901013 C18.7042631,1.403787 18.0065515,1.5822543 17.5857491,1.73492154 C17.1960811,1.87629354 16.5684137,2.15645385 16.5699188,2.18833908 C16.5705927,2.20252613 16.6467891,2.27231257 16.739253,2.34341754 C17.4111483,2.86010464 18.2949357,3.83760128 18.8435138,4.6707959 C20.4885783,7.16936213 20.9870596,10.2793045 20.2098111,13.1948983 C19.6806074,15.1800335 18.4822317,17.0882002 16.9549624,18.377574 C16.7435963,18.5560172 16.579106,18.7159787 16.589429,18.7330441 C16.6200718,18.7836972 17.4242286,19.1163275 17.8467903,19.2531357 C18.6421138,19.5106294 19.5047027,19.6553907 20.4479154,19.6896623 C20.5562183,19.6935972 20.8840807,19.6783464 21.1764986,19.6557731 L21.1764986,19.6557714 Z M15.8671199,17.825272 C16.21759,17.556537 16.8244834,17.006618 16.9142854,16.8764128 C16.9595484,16.8107857 16.9479002,16.7990034 16.796137,16.7568904 C16.7035383,16.7311947 15.8522031,16.4978231 14.9042814,16.2382855 C13.2328248,15.7806459 13.1827702,15.7695493 13.2464429,15.8707552 C13.4579727,16.2069734 14.0828027,16.9156325 14.5010995,17.2937396 C14.8449437,17.6045475 15.4536307,18.087542 15.5014776,18.087542 C15.5144605,18.087542 15.6789984,17.9695203 15.8671199,17.825272 L15.8671199,17.825272 Z M18.2124896,15.1526929 C18.3481139,14.9197557 18.4588526,14.7107499 18.458576,14.6882345 C18.4580032,14.6425154 11.8890708,12.8362658 11.853931,12.8721679 C11.8253503,12.9013682 12.1724755,13.9278069 12.3101647,14.2212365 L12.4149787,14.4446063 L15.0727374,15.1725417 L17.7304962,15.900477 L17.8481978,15.7383457 C17.9129339,15.6491731 18.0768652,15.3856297 18.2124896,15.1526929 L18.2124896,15.1526929 Z M19.0311527,13.3295438 C19.1551531,12.9295413 19.3253815,12.2245613 19.3254522,12.1107365 C19.3254917,12.0432253 19.2782177,12.0159094 19.0596687,11.9571687 C18.9134595,11.9178708 17.1776762,11.4433141 15.2023727,10.9025979 C13.2270689,10.3618816 11.5896233,9.91947738 11.5636052,9.91947738 C11.5035669,9.91947738 11.5358029,11.4785962 11.5982231,11.5937533 C11.6309449,11.6541197 12.3842688,11.8743763 15.2560152,12.6632148 C17.2451369,13.2096062 18.8851205,13.6577431 18.9004234,13.6590751 C18.9157279,13.6604177 18.9745548,13.5121181 19.0311527,13.3295438 L19.0311527,13.3295438 Z M19.4692242,10.2313126 C19.4350258,9.2628752 19.4420756,9.28875821 19.1928703,9.21690241 C18.7232506,9.08149338 12.2101995,7.30799931 12.1404316,7.296534 C12.0753447,7.28583777 12.0448674,7.3455177 11.9355465,7.6977328 C11.8649127,7.92530326 11.7732305,8.2712342 11.7318081,8.46646844 L11.6564947,8.82144005 L15.5402276,9.88888416 C17.6762805,10.4759788 19.4399794,10.9584224 19.4595576,10.960981 C19.4804556,10.9637007 19.4844485,10.6624202 19.4692248,10.2313126 L19.4692242,10.2313126 Z M19.0316784,7.60054411 C18.8358992,6.98800269 18.6007369,6.44856398 18.512855,6.41041525 C18.3141436,6.32415826 13.2817178,4.9750439 13.2627671,5.0029498 C12.931713,5.49044139 12.4866062,6.2492041 12.5175817,6.2732491 C12.5671389,6.31171869 19.1505084,8.08835208 19.159861,8.06577984 C19.1662295,8.05040852 19.1085483,7.84105161 19.0316784,7.60054411 L19.0316784,7.60054411 Z M17.6888679,4.94017702 C17.2172046,4.29349544 16.5284034,3.58751882 15.8889624,3.09539105 L15.5019951,2.79757249 L15.2772276,2.96541448 C14.9373321,3.21922667 14.4861888,3.61037474 14.2549561,3.85173875 L14.0481955,4.06755885 L15.8893458,4.57564834 C16.9019784,4.8550981 17.7458914,5.08538685 17.7647077,5.08740148 C17.7835233,5.08943262 17.7493964,5.02316523 17.6888679,4.94017702 L17.6888679,4.94017702 Z" id="Shape"></path>
                </g>
            </g>
        </g>
    </g>
</svg>