<?xml version="1.0" encoding="UTF-8"?>
<svg width="40px" height="32px" viewBox="0 0 40 32" version="1.1" xmlns="http://www.w3.org/2000/svg" xmlns:xlink="http://www.w3.org/1999/xlink">
    <!-- Generator: Sketch 46.2 (44496) - http://www.bohemiancoding.com/sketch -->
    <title>Filter</title>
    <desc>Created with Sketch.</desc>
    <defs></defs>
    <g id="Page-1" stroke="none" stroke-width="1" fill="none" fill-rule="evenodd">
        <g id="PLP-Filter-Expanded" transform="translate(-53.000000, -342.000000)" fill-rule="nonzero" fill="#000000">
            <g id="Filter" transform="translate(53.000000, 342.000000)">
                <path d="M0.755555556,6.04931507 L24.4,6.04931507 C24.8444444,8.24109589 26.8444444,10.0383562 29.2888889,10.0383562 C31.7333333,10.0383562 33.7333333,8.24109589 34.1777778,6.04931507 L39.2444444,6.04931507 C39.6444444,6.04931507 40,5.78630137 40,5.39178082 C40,4.99726027 39.6444444,4.73424658 39.2444444,4.73424658 L34.2222222,4.73424658 C33.9111111,2.10410959 31.8222222,0.394520548 29.2888889,0.394520548 C26.7555556,0.394520548 24.6222222,2.10410959 24.3555556,4.73424658 L0.755555556,4.73424658 C0.355555556,4.73424658 0,4.99726027 0,5.39178082 C0,5.78630137 0.355555556,6.04931507 0.755555556,6.04931507 Z M29.2888889,1.75342466 C31.2,1.75342466 32.7555556,3.28767123 32.7555556,5.17260274 C32.7555556,7.05753425 31.2,8.59178082 29.2888889,8.59178082 C27.3777778,8.59178082 25.8222222,7.05753425 25.8222222,5.17260274 C25.8222222,3.28767123 27.3777778,1.75342466 29.2888889,1.75342466 Z" id="Shape"></path>
                <path d="M39.2444444,15.6931507 L19.0222222,15.6931507 C18.7111111,13.0630137 16.6222222,11.3534247 14.0888889,11.3534247 C11.5555556,11.3534247 9.46666667,13.0630137 9.15555556,15.6931507 L0.755555556,15.6931507 C0.355555556,15.6931507 0,15.9561644 0,16.3506849 C0,16.7452055 0.355555556,17.0082192 0.755555556,17.0082192 L9.2,17.0082192 C9.64444444,19.2 11.6444444,20.9972603 14.0888889,20.9972603 C16.5333333,20.9972603 18.5333333,19.2 18.9777778,17.0082192 L39.2444444,17.0082192 C39.6444444,17.0082192 40,16.7452055 40,16.3506849 C40,15.9561644 39.6444444,15.6931507 39.2444444,15.6931507 Z M14.0888889,19.5506849 C12.1777778,19.5506849 10.6222222,18.0164384 10.6222222,16.1315068 C10.6222222,14.2465753 12.1777778,12.7123288 14.0888889,12.7123288 C16,12.7123288 17.5555556,14.2465753 17.5555556,16.1315068 C17.5555556,18.0164384 16,19.5506849 14.0888889,19.5506849 Z" id="Shape"></path>
                <path d="M39.2444444,26.6520548 L29.1555556,26.6520548 C28.8444444,24.0219178 26.7555556,22.3123288 24.2222222,22.3123288 C21.6888889,22.3123288 19.5555556,24.0219178 19.2888889,26.6520548 L0.755555556,26.6520548 C0.355555556,26.6520548 0,26.9150685 0,27.309589 C0,27.7041096 0.355555556,27.9671233 0.755555556,27.9671233 L19.3333333,27.9671233 C19.7777778,30.5972603 21.7777778,31.9561644 24.2222222,31.9561644 C26.6666667,31.9561644 28.6666667,30.5972603 29.1111111,27.9671233 L39.2444444,27.9671233 C39.6444444,27.9671233 40,27.7041096 40,27.309589 C40,26.9150685 39.6444444,26.6520548 39.2444444,26.6520548 Z M24.2222222,30.5534247 C22.3111111,30.5534247 20.7555556,29.0191781 20.7555556,27.1342466 C20.7555556,25.2493151 22.3111111,23.7150685 24.2222222,23.7150685 C26.1333333,23.7150685 27.6888889,25.2493151 27.6888889,27.1342466 C27.6888889,29.0191781 26.1333333,30.5534247 24.2222222,30.5534247 Z" id="Shape"></path>
            </g>
        </g>
    </g>
</svg>