<?xml version="1.0" encoding="UTF-8"?>
<svg width="20px" height="20px" viewBox="0 0 20 20" version="1.1" xmlns="http://www.w3.org/2000/svg" xmlns:xlink="http://www.w3.org/1999/xlink">
    <!-- Generator: Sketch 47 (45396) - http://www.bohemiancoding.com/sketch -->
    <title>Shape</title>
    <desc>Created with Sketch.</desc>
    <defs></defs>
    <g id="Page-1" stroke="none" stroke-width="1" fill="none" fill-rule="evenodd">
        <g id="PDP-02" transform="translate(-1046.000000, -791.000000)" fill-rule="nonzero" fill="#000000">
            <path d="M1050.47566,810.917991 L1065.92159,795.474852 C1066.02614,795.37033 1066.02614,795.213547 1065.92159,795.109025 L1064.98073,794.168326 L1062.18425,791.37236 C1061.68768,790.87588 1060.85136,790.87588 1060.32865,791.37236 L1046.37243,805.35219 C1045.87586,805.84867 1045.87586,806.684846 1046.37243,807.207457 L1049.1689,810.003423 L1050.10977,810.944121 C1050.21431,811.022513 1050.37112,811.022513 1050.47566,810.917991 Z M1061.81836,791.738187 L1064.61483,794.534153 L1065.37275,795.291938 L1064.19667,796.467812 L1061.53087,793.802499 C1061.42633,793.697976 1061.26952,793.697976 1061.16498,793.802499 C1061.06044,793.907021 1061.06044,794.063804 1061.16498,794.168326 L1063.83077,796.833639 L1062.65469,798.009513 L1060.9559,796.311029 C1060.85136,796.206507 1060.69454,796.206507 1060.59,796.311029 C1060.48546,796.415551 1060.48546,796.572334 1060.59,796.676856 L1062.28879,798.37534 L1061.11271,799.551214 L1059.41392,797.85273 C1059.30938,797.748207 1059.15256,797.748207 1059.04802,797.85273 C1058.94348,797.957252 1058.94348,798.114035 1059.04802,798.218557 L1060.74681,799.917041 L1059.57073,801.092914 L1057.87194,799.39443 C1057.7674,799.289908 1057.61058,799.289908 1057.50604,799.39443 C1057.4015,799.498953 1057.4015,799.655736 1057.50604,799.760258 L1059.20484,801.458742 L1058.02875,802.634615 L1055.33682,799.969302 C1055.23228,799.86478 1055.07547,799.86478 1054.97092,799.969302 C1054.86638,800.073824 1054.86638,800.230607 1054.97092,800.335129 L1057.63672,803.000443 L1056.46063,804.176316 L1054.76184,802.477832 C1054.6573,802.37331 1054.50049,802.37331 1054.39595,802.477832 C1054.29141,802.582354 1054.29141,802.739137 1054.39595,802.843659 L1056.09474,804.542143 L1054.91865,805.744147 L1053.21986,804.045663 C1053.11532,803.941141 1052.95851,803.941141 1052.85397,804.045663 C1052.74943,804.150186 1052.74943,804.306969 1052.85397,804.411491 L1054.55276,806.109975 L1053.37667,807.285848 L1051.67788,805.587364 C1051.57334,805.482842 1051.41653,805.482842 1051.31199,805.587364 C1051.20745,805.691886 1051.20745,805.84867 1051.31199,805.953192 L1053.01078,807.651676 L1051.83469,808.827549 L1049.1689,806.136105 C1049.06436,806.031583 1048.90755,806.031583 1048.80301,806.136105 C1048.69846,806.240627 1048.69846,806.397411 1048.80301,806.501933 L1051.4688,809.167246 L1050.29271,810.36925 L1049.53479,809.611465 L1046.73832,806.815499 C1046.4247,806.501933 1046.4247,806.005453 1046.73832,805.718017 L1060.69454,791.764318 C1061.00817,791.450752 1061.50474,791.450752 1061.81836,791.738187 Z" id="Shape"></path>
        </g>
    </g>
</svg>