<?xml version="1.0" encoding="UTF-8"?>
<svg width="24px" height="20px" viewBox="0 0 24 20" version="1.1" xmlns="http://www.w3.org/2000/svg" xmlns:xlink="http://www.w3.org/1999/xlink">
    <!-- Generator: Sketch 46.2 (44496) - http://www.bohemiancoding.com/sketch -->
    <title>final shape copy</title>
    <desc>Created with Sketch.</desc>
    <defs></defs>
    <g id="Page-1" stroke="none" stroke-width="1" fill="none" fill-rule="evenodd">
        <g id="Home-Option-01-Copy" transform="translate(-1089.000000, -6535.000000)" fill="#494949">
            <path d="M1091.7387,6547.16939 C1092.0202,6547.22168 1092.31019,6547.24899 1092.60642,6547.24899 C1093.12795,6547.24899 1093.63018,6547.16434 1094.10071,6547.00773 C1091.7941,6546.63455 1090.0304,6544.58941 1090.0304,6542.12243 C1090.0304,6542.08417 1090.03083,6542.04601 1090.03167,6542.00796 C1090.71465,6542.40511 1091.50144,6542.63671 1092.34001,6542.64946 C1090.95464,6541.77996 1090.0304,6540.21517 1090.0304,6538.42932 C1090.0304,6537.50211 1090.27955,6536.63449 1090.71302,6535.89283 C1093.1692,6538.90107 1096.77264,6540.89321 1100.83446,6541.16381 C1100.76005,6540.81399 1100.72085,6540.4507 1100.72085,6540.07803 C1100.72085,6537.27351 1102.94099,6535 1105.67967,6535 C1107.11046,6535 1108.39973,6535.62054 1109.30482,6536.61314 C1110.42784,6536.43045 1111.47161,6536.00409 1112.38282,6535.38863 C1112.04669,6536.56379 1111.28173,6537.55135 1110.2732,6538.16158 C1111.26041,6538.06756 1112.19312,6537.79298 1113.05023,6537.38084 C1112.43621,6538.40988 1111.61142,6539.29266 1110.63731,6539.96622 C1110.6381,6540.00339 1110.63849,6540.04067 1110.63849,6540.07803 C1110.63849,6540.17711 1110.63641,6540.5612 1110.63641,6540.65621 C1110.63641,6548.57807 1104.36523,6555 1096.62935,6555 C1093.81529,6555 1091.19505,6554.15021 1089,6552.68756 C1089.39016,6552.73392 1089.78702,6552.75775 1090.18932,6552.75775 C1092.51961,6552.75775 1094.66753,6551.95811 1096.38566,6550.61216 C1094.18587,6550.61236 1092.35997,6549.1661 1091.7387,6547.16939 Z" id="final-shape-copy"></path>
        </g>
    </g>
</svg>