<?xml version="1.0" encoding="UTF-8"?>
<svg width="24px" height="16px" viewBox="0 0 24 16" version="1.1" xmlns="http://www.w3.org/2000/svg" xmlns:xlink="http://www.w3.org/1999/xlink">
    <!-- Generator: Sketch 46.2 (44496) - http://www.bohemiancoding.com/sketch -->
    <title>icon 2</title>
    <desc>Created with Sketch.</desc>
    <defs></defs>
    <g id="Page-1" stroke="none" stroke-width="1" fill="none" fill-rule="evenodd">
        <g id="Home-Option-01-Copy" transform="translate(-1163.000000, -6537.000000)" fill="#494949">
            <path d="M1163,6545 C1163,6544.2 1163.00431,6543.575 1163.01294,6543.125 C1163.02156,6542.675 1163.05821,6542.10625 1163.12288,6541.41875 C1163.18756,6540.73125 1163.28457,6540.11667 1163.41393,6539.575 C1163.5519,6538.96666 1163.84941,6538.45417 1164.30645,6538.0375 C1164.7635,6537.62083 1165.29815,6537.37917 1165.91041,6537.3125 C1167.82483,6537.10417 1170.71797,6537 1174.58992,6537 C1178.46187,6537 1181.35501,6537.10417 1183.26942,6537.3125 C1183.88169,6537.37917 1184.41849,6537.62083 1184.87985,6538.0375 C1185.34121,6538.45417 1185.64087,6538.96666 1185.77885,6539.575 C1185.89957,6540.11667 1185.99228,6540.73125 1186.05695,6541.41875 C1186.12163,6542.10625 1186.15828,6542.675 1186.1669,6543.125 C1186.17552,6543.575 1186.17984,6544.2 1186.17984,6545 C1186.17984,6545.8 1186.17552,6546.425 1186.1669,6546.875 C1186.15828,6547.325 1186.12163,6547.89375 1186.05695,6548.58125 C1185.99228,6549.26875 1185.89526,6549.88333 1185.76591,6550.425 C1185.62793,6551.03334 1185.33043,6551.54583 1184.87338,6551.9625 C1184.41634,6552.37917 1183.88169,6552.62083 1183.26942,6552.6875 C1181.35501,6552.89583 1178.46187,6553 1174.58992,6553 C1170.71797,6553 1167.82483,6552.89583 1165.91041,6552.6875 C1165.29815,6552.62083 1164.76134,6552.37917 1164.29999,6551.9625 C1163.83863,6551.54583 1163.53897,6551.03334 1163.40099,6550.425 C1163.28026,6549.88333 1163.18756,6549.26875 1163.12288,6548.58125 C1163.05821,6547.89375 1163.02156,6547.325 1163.01294,6546.875 C1163.00431,6546.425 1163,6545.8 1163,6545 Z M1171.27851,6549 C1171.27851,6549.31667 1171.4208,6549.55 1171.70537,6549.7 C1171.84335,6549.76667 1171.97701,6549.8 1172.10636,6549.8 C1172.27883,6549.8 1172.42543,6549.75833 1172.54616,6549.675 L1179.16897,6545.675 C1179.42768,6545.53333 1179.55703,6545.30833 1179.55703,6545 C1179.55703,6544.69167 1179.42768,6544.46667 1179.16897,6544.325 L1172.54616,6540.325 C1172.27883,6540.15833 1171.99857,6540.15 1171.70537,6540.3 C1171.4208,6540.45 1171.27851,6540.68333 1171.27851,6541 L1171.27851,6549 Z" id="icon-2"></path>
        </g>
    </g>
</svg>