<?xml version="1.0" encoding="utf-8"?>
<!-- Generator: Adobe Illustrator 21.1.0, SVG Export Plug-In . SVG Version: 6.00 Build 0)  -->
<svg version="1.1" id="Layer_1" xmlns="http://www.w3.org/2000/svg" xmlns:xlink="http://www.w3.org/1999/xlink" x="0px" y="0px"
	 viewBox="0 0 285.5 163" style="enable-background:new 0 0 285.5 163;" xml:space="preserve">
<style type="text/css">
	.st0{fill:#17335B;}
	.st1{fill:#F9678D;}
	.st2{fill:#494949;}
</style>
<path class="st0" d="M150.1,54.4c-3-2.4-6.6-4-9.9-6c-3.8-2.2-8-4-11.5-6.5c-10.5-7.4-10.6-20.8-0.5-29c0.2-0.2,0.5-0.4,0.7-0.6
	c-8.8,1.6-15,6.7-18.6,14.8c-5.2,11.6-3,21.7,7,29.6c3.7,2.9,8.1,4.8,12.2,7.3c4.5,2.7,9.2,5.1,13.3,8.2c4.6,3.5,6.5,8.5,5.1,14.4
	c-1.6,6.8-5.2,10-12.2,10.3c-6.6,0.3-12.9-1.2-18.2-5.2c-1.7-1.2-3-3.1-3.9-5c-0.9-1.8-0.1-3.7,1.6-4.9c1.6-1.2,3.3-1,5,0
	c4.3,2.6,6.5,2.7,8.7,0.6c2.4-2.3,3.1-6.6,1.5-9.6c-1.7-3.2-5.4-4.8-9.3-3.9c-8.6,1.9-12.5,14.6-6.5,21.4c3.6,4.1,8.3,6,13.5,7
	c8.3,1.6,16.1,0.8,22.8-4.9C163.4,81.5,163.1,64.6,150.1,54.4z"/>
<path class="st1" d="M186.7,48c-3-17.5-13.4-29.3-30.7-34.5c-6-1.8-12.1-2-18.2-0.4c-8.7,2.3-13,11.9-9,20c3,6.1,10.7,7.5,14.8,2.8
	c2.1-2.4,2.5-6.8,0.8-9.3c-1.5-2.4-4-3-7.8-1.8c-2.3,0.7-4.2,0.3-5.5-1.7c-1.2-2-0.7-4,0.7-5.6c1.1-1.2,2.6-2.2,4.1-2.8
	c4.4-1.7,9-2.1,13.6-1.3c3.5,0.6,6.5,2,8.9,4.2c6.2,5.2,10.6,20.2,10.6,37.9c0,17.7-4.4,32.7-10.6,37.9L158,94
	c-1.8,1.8-3.4,2.5-6.1,3.7c-0.1,0-0.2,0.3-0.3,0.6c6.9-1,13-3.5,18.3-7.6C183.9,79.7,189.7,65.3,186.7,48z"/>
<g id="GCD84w.tif">
	<g>
		<path class="st2" d="M123.3,156c-0.9-0.1-1.8-0.2-2.7-0.4c-3.1-0.8-5.3-2.7-6.7-5.6c-1.3-2.6-1.7-5.4-1.6-8.3
			c0.1-2.3,0.4-4.6,1.4-6.8c1.8-4.1,4.8-6.8,9.2-7.7c2.7-0.6,5.5-0.4,8.1,0.6c0.5,0.2,1,0.5,1.6,0.8c0-0.2,0-0.3,0-0.5
			c0-2.3,0-4.5,0-6.8c0-1.3-0.2-2.5-1.1-3.5c-0.4-0.4-0.9-0.7-1.4-1c-0.4-0.2-0.4-0.2-0.3-0.7c2.5-0.6,5-1.3,7.5-2
			c0,0.3,0,0.5,0,0.7c0,11.1,0,22.3,0,33.4c0,1.3,0.1,2.6,0.7,3.7c0.3,0.7,0.8,1.2,1.5,1.7c0.2,0.1,0.3,0.3,0.5,0.6
			c-2.5,0.6-4.9,1.1-7.3,1.7c0-1.7,0-3.3,0-5.1c-0.3,0.4-0.6,0.7-0.8,1c-1.7,1.9-3.6,3.3-6.1,3.9c-0.5,0.1-1.1,0.2-1.6,0.3
			C123.8,156,123.5,156,123.3,156z M132.5,141.6c0-2.3,0-4.7,0-7c0-2.1-1-3.8-2.6-5.1c-1.7-1.3-3.6-1.5-5.6-1.1
			c-2.8,0.5-4.5,2.3-5.6,4.9c-0.9,2-1.2,4-1.3,6.2c-0.1,2.8,0,5.6,1.2,8.2c1,2.2,2.5,3.8,4.9,4.5c3.4,1,6.2-0.1,8.7-2.4
			c0.2-0.2,0.3-0.5,0.3-0.8C132.5,146.6,132.5,144.1,132.5,141.6z"/>
		<path class="st2" d="M15.5,156c-1-0.1-2-0.2-3-0.3c-2.5-0.3-4.8-1.2-7-2.3c-0.1-0.1-0.3-0.3-0.3-0.4c0-2.6,0-5.3,0-7.9
			c0.4-0.2,0.6-0.1,0.8,0.4c0.9,2.5,2.1,4.8,4,6.5c2.6,2.3,5.5,3.2,8.9,2c2.6-0.9,4.2-3.6,3.9-6.4c-0.3-3-2.1-4.9-4.4-6.4
			c-2.3-1.5-4.8-2.8-7.1-4.3c-1.7-1-3.2-2.2-4.4-3.8c-1-1.3-1.6-2.8-1.8-4.4c-0.2-1.6-0.1-3.1,0.5-4.6c1-2.6,2.9-4.2,5.4-5.3
			c2.4-1,4.8-1.1,7.3-0.9c2,0.2,3.9,0.5,5.7,1.3c1.9,0.8,1.9,0.8,1.9,2.8c0,2,0,4,0,6.1c-0.2,0-0.4,0-0.5,0
			c-0.6-1.3-1.1-2.6-1.8-3.8c-1.2-2.2-3-4-5.5-4.7c-2.4-0.7-4.6-0.5-6.6,1.1c-1.7,1.4-2.2,3.2-2,5.4c0.2,2.2,1.4,3.8,3,5.2
			c1.9,1.7,4.2,2.8,6.4,4.1c1.8,1,3.5,2.1,5,3.5c1.5,1.4,2.6,3.1,3,5.1c0.7,3.8-0.4,7.6-3.9,10c-1.9,1.3-4,1.9-6.2,2
			c-0.2,0-0.4,0.1-0.6,0.1C16.1,156,15.8,156,15.5,156z"/>
		<path class="st2" d="M234.5,156c-0.6-0.1-1.2-0.1-1.7-0.2c-4.6-0.7-7.9-3.1-9.6-7.5c-2-5.1-1.8-10.1,0.7-15c1.9-3.6,4.9-5.8,9-6.3
			c2.5-0.4,5-0.1,7.4,1c2.7,1.2,4.2,3.4,5,6.2c0.5,1.8,0.6,3.7,0.6,5.5c0,0.1,0,0.1,0,0.2c-6.2,0-12.5,0-18.8,0c0.1,1,0.1,2,0.2,3
			c0.3,2.3,0.9,4.5,2.4,6.4c2,2.6,4.7,3.6,7.9,3.5c3-0.1,5.7-1.4,7.9-3.3c0.1-0.1,0.2-0.2,0.3-0.3c0,0,0.1,0,0.2-0.1
			c0,0.1,0.1,0.2,0.1,0.2c0.1,0.1,0.1,0.2,0.2,0.3c-2.4,3.4-5.4,5.6-9.5,6.3c-0.5,0.1-1,0.1-1.6,0.2C235,156,234.7,156,234.5,156z
			 M241,137.8c0.1-2.2-0.4-4.6-1.3-6.4c-0.5-1-1.2-1.9-2.3-2.5c-2.3-1.2-5.4-0.7-7.2,1.3c-1.5,1.6-2.2,3.5-2.7,5.6
			c-0.2,0.9-0.3,1.9-0.5,2.9C231.8,138.4,236.4,138.1,241,137.8z"/>
		<path class="st2" d="M169.2,156c-0.5-0.1-1.1-0.1-1.6-0.2c-5.1-0.8-8.5-3.7-10.3-8.5c-1.4-3.8-1.4-7.7,0.1-11.5
			c2-5.1,5.8-8,11.2-8.8c2.7-0.4,5.4-0.1,7.8,1.3c1.5,0.8,2.6,1.9,3.1,3.5c0.4,1.4,0.3,2.8-0.9,3.9c-1,0.9-2.2,1.1-3.4,0.6
			c-1.2-0.5-1.8-1.5-1.8-2.8c0-1.3,0.6-2.2,1.7-2.8c0.1-0.1,0.2-0.1,0.4-0.2c-0.9-1.2-2.1-1.9-3.5-2.1c-3.8-0.6-7.1,1-8.9,4.4
			c-1.6,3-2,6.2-1.6,9.6c0.3,2.4,1,4.6,2.6,6.5c2.7,3.2,6.1,4.2,10.1,3.3c2.2-0.5,4.1-1.5,5.8-2.9c0.4,0.2,0.4,0.5,0.2,0.8
			c-1.7,2.4-3.9,4.2-6.7,5c-0.9,0.3-1.9,0.4-2.9,0.5c-0.3,0-0.5,0.1-0.8,0.1C169.6,156,169.4,156,169.2,156z"/>
		<path class="st2" d="M42.5,156c-0.5-0.1-1.1-0.1-1.6-0.2c-5.1-0.8-8.5-3.7-10.3-8.5c-1.4-3.8-1.4-7.7,0.1-11.5
			c2-5.1,5.8-8,11.2-8.8c2.7-0.4,5.4-0.1,7.8,1.3c1.5,0.8,2.6,1.9,3.1,3.5c0.4,1.4,0.3,2.8-0.9,3.9c-1,0.9-2.2,1.1-3.4,0.6
			c-1.2-0.5-1.8-1.5-1.8-2.8c0-1.3,0.6-2.2,1.7-2.8c0.1-0.1,0.2-0.1,0.4-0.2c-0.9-1.2-2.1-1.9-3.5-2.1c-3.8-0.6-7.1,1-8.9,4.4
			c-1.6,3-2,6.2-1.6,9.6c0.3,2.4,1,4.6,2.6,6.5c2.7,3.2,6.1,4.2,10.1,3.3c2.2-0.5,4.1-1.5,5.8-2.9c0.4,0.2,0.4,0.5,0.2,0.8
			c-1.7,2.4-3.9,4.2-6.7,5c-0.9,0.3-1.9,0.4-2.9,0.5c-0.3,0-0.5,0.1-0.8,0.1C42.9,156,42.7,156,42.5,156z"/>
		<path class="st2" d="M186.5,118.4c0.1,0,0.2,0,0.3,0c4,0,8,0,12,0c2.9,0,5.8,0.4,8.5,1.3c6.1,2.1,10.1,6.1,11.4,12.5
			c0.8,3.9,0.7,7.8-0.7,11.6c-1.2,3.3-3.3,5.9-6.1,7.9c-3.1,2.1-6.5,3.3-10.2,3.6c-2.4,0.2-4.8,0.2-7.2,0.2c-2.5,0-5,0-7.5,0
			c-0.2,0-0.4,0-0.8,0c0.2-0.3,0.3-0.5,0.4-0.6c0.9-0.6,1.5-1.4,1.6-2.5c0.2-1.1,0.3-2.2,0.3-3.3c0-8.1,0-16.2,0-24.4
			c0-1.2-0.2-2.5-0.4-3.7c-0.2-0.8-0.7-1.5-1.4-1.9c-0.2-0.1-0.3-0.3-0.4-0.5C186.4,118.5,186.5,118.4,186.5,118.4z M193.8,119.8
			c0,0.3,0,0.4,0,0.6c0,9.7,0,19.5,0,29.2c0,0.4,0,0.7,0,1.1c0.1,1.7,1.1,2.8,2.7,3.1c1.5,0.3,3,0.2,4.6,0c5.9-0.7,10-4.6,11.7-10.2
			c0.8-2.6,1-5.2,0.9-7.8c-0.1-3-0.7-5.8-2.2-8.5c-1.6-3-4-5.1-7.2-6.3c-2.1-0.8-4.3-1.1-6.5-1.1
			C196.5,119.8,195.2,119.8,193.8,119.8z"/>
		<path class="st2" d="M89.4,126.8c0,1.9,0,3.8,0,5.7c0.7-0.6,1.3-1.2,1.9-1.8c1.7-1.5,3.7-2.7,5.9-3.4c2-0.6,4-0.7,5.9-0.1
			c2.4,0.7,3.7,2.4,4.2,4.8c0.2,1.1,0.3,2.3,0.3,3.4c0,4.5,0,9.1,0,13.6c0,1.2,0.2,2.5,0.4,3.7c0.2,0.9,0.7,1.5,1.5,2
			c0.2,0.1,0.2,0.3,0.4,0.6c-3.2,0-6.2,0-9.4,0c0.1-0.2,0.2-0.5,0.3-0.6c1.2-0.7,1.6-1.8,1.8-3c0.1-0.9,0.2-1.9,0.2-2.9
			c0-3.9,0-7.9,0-11.8c0-1.1-0.1-2.1-0.4-3.2c-0.5-2.1-2-3.1-4.1-3.3c-2.4-0.2-4.5,0.5-6.6,1.6c-0.8,0.4-1.5,0.9-2.2,1.4
			c-0.2,0.1-0.3,0.4-0.3,0.6c0,5.3,0,10.6,0,15.9c0,1.1,0.1,2.2,0.6,3.2c0.3,0.5,0.8,0.9,1.2,1.4c0.1,0.2,0.3,0.3,0.4,0.5
			c0,0-0.1,0.1-0.1,0.1c-3,0-6.1,0-9.3,0c0.2-0.2,0.2-0.5,0.4-0.6c1-0.6,1.5-1.4,1.7-2.5c0.2-1.1,0.3-2.2,0.3-3.3
			c0-4.8,0-9.7,0-14.5c0-1.1-0.1-2.1-0.6-3.1c-0.4-0.7-0.9-1.1-1.5-1.5c-0.1-0.1-0.2-0.3-0.2-0.4c0-0.1,0.2-0.3,0.3-0.3
			c2.2-0.8,4.4-1.5,6.6-2.2C89.2,126.8,89.3,126.8,89.4,126.8z"/>
		<path class="st2" d="M80.3,153.2c-0.1,0.3-0.1,0.6-0.2,0.7c-1.4,1.7-4.4,2.3-6.3,1.4c-1.3-0.6-1.9-1.8-2.2-3.1
			c0-0.1,0-0.1-0.1-0.2c0,0,0,0-0.1-0.1c-0.1,0.1-0.2,0.3-0.4,0.4c-2.6,3.2-7.5,4.5-11.4,3c-2.8-1.1-4.5-3.9-4.3-6.9
			c0.2-3.9,2.8-6.4,6.3-7.5c3-1,6.1-1,9.2-0.6c0.1,0,0.3,0,0.4,0c0,0,0.1-0.1,0.1-0.1c0-2.3,0-4.5-0.1-6.8c0-0.8-0.3-1.6-0.6-2.4
			c-0.8-1.9-2.4-2.7-4.3-2.8c-1.9-0.1-3.7,0.2-5.2,1.6c-0.2,0.2-0.4,0.4-0.5,0.6c0.3,0.1,0.5,0.2,0.7,0.4c1.2,0.8,1.7,2.2,1.2,3.5
			c-0.5,1.3-1.8,2-3.3,1.8c-1.4-0.2-2.4-1.3-2.5-2.7c-0.2-2.4,1.1-3.9,3-5c2.1-1.2,4.4-1.7,6.7-1.6c1.6,0,3.3,0.2,4.8,0.8
			c2.8,1,4.4,3.1,4.8,6c0.1,0.8,0.1,1.6,0.2,2.4c0,4.3,0,8.6,0,13c0,0.5,0,1,0.1,1.5c0.1,1.7,0.9,2.5,2.6,2.6
			C79.2,153.2,79.7,153.2,80.3,153.2z M71.3,141.8c-2.7-0.4-5.3-0.3-7.7,1c-2.1,1.1-3.2,3-3.2,5.4c0,3.5,2.5,5.7,5.9,5.1
			c1.8-0.3,3.3-1.2,4.5-2.5c0.4-0.4,0.5-0.8,0.5-1.3c0-1.1,0-2.2,0-3.4C71.3,144.7,71.3,143.3,71.3,141.8z"/>
		<path class="st2" d="M263,129.7c-0.8-0.8-1.7-1.1-2.7-1.2c-1.8-0.3-3.5-0.4-5.2,0.4c-2.1,1-2.8,3.2-2,5.2c0.6,1.6,2,2.5,3.4,3.2
			c2.1,1,4.3,2,6.4,3c1.6,0.8,3.1,1.8,4,3.4c1.4,2.4,1.4,4.9,0.1,7.3c-1.4,2.7-3.8,4.1-6.7,4.6c-3.4,0.6-6.7,0.3-9.7-1.4
			c-1.1-0.6-2.1-1.5-2.4-2.8c-0.4-1.5,0.5-3.1,1.9-3.5c1.5-0.5,3.1,0.3,3.6,1.7c0.4,1.1,0,2.3-0.8,3c-0.1,0.1-0.2,0.2-0.3,0.3
			c0.6,0.7,1.3,1,2.1,1.2c2.2,0.6,4.3,0.7,6.5-0.2c1.9-0.8,2.9-2.7,2.7-4.7c-0.2-1.8-1.1-3.2-2.6-4c-1.7-1-3.6-1.8-5.4-2.7
			c-1.6-0.7-3.1-1.5-4.5-2.5c-3.6-2.7-3.8-8.2,0.1-11c2.2-1.5,4.6-2.1,7.2-2c2.3,0,4.5,0.4,6.5,1.8c1,0.7,1.8,1.7,2,3
			c0.2,1.5-0.7,3-2.2,3.3c-1.5,0.3-3-0.5-3.4-1.9c-0.3-1.1,0.1-2.4,1.1-3.1C262.8,129.9,262.9,129.8,263,129.7z"/>
		<path class="st2" d="M278.1,127c0,0.2,0,0.5,0,0.7c0,7.2,0,14.4,0,21.6c0,1.3,0,2.7,0.4,3.9c0.3,0.8,0.8,1.4,1.5,1.9
			c0.2,0.1,0.3,0.4,0.5,0.6c-3.2,0-6.3,0-9.3,0c-0.1-0.3-0.1-0.5,0.2-0.6c1-0.5,1.5-1.4,1.7-2.5c0.2-1.1,0.3-2.2,0.3-3.4
			c0-4.9,0-9.7,0-14.6c0-0.7-0.1-1.5-0.3-2.2c-0.2-1-0.9-1.8-1.8-2.3c-0.2-0.1-0.5-0.2-0.4-0.5c0.1-0.2,0.3-0.3,0.5-0.4
			c2.1-0.7,4.1-1.4,6.2-2.1C277.8,127.1,277.9,127,278.1,127z"/>
		<path class="st2" d="M150.7,126.9c0,0.3,0,0.5,0,0.7c0,7.1,0,14.2,0,21.3c0,1.3,0,2.7,0.5,3.9c0.3,0.8,0.7,1.4,1.5,1.8
			c0.2,0.1,0.3,0.3,0.5,0.6c-3.2,0-6.3,0-9.3,0c-0.1-0.3-0.1-0.5,0.2-0.6c1-0.5,1.5-1.4,1.7-2.5c0.2-1.1,0.3-2.2,0.3-3.2
			c0-4.9,0-9.7,0-14.6c0-1-0.1-2.1-0.6-3c-0.4-0.7-0.9-1.1-1.6-1.5c-0.1-0.1-0.2-0.3-0.2-0.4c0-0.1,0.1-0.3,0.2-0.3
			C146.1,128.4,148.4,127.7,150.7,126.9z"/>
		<path class="st2" d="M279,119.4c0,1.9-1.6,3.5-3.5,3.5c-1.8,0-3.4-1.6-3.5-3.5c0-1.8,1.6-3.5,3.4-3.5
			C277.3,115.9,279,117.5,279,119.4z"/>
		<path class="st2" d="M151.6,119.4c0,1.9-1.6,3.5-3.5,3.5c-1.8,0-3.4-1.6-3.4-3.4c0-1.8,1.6-3.5,3.4-3.5
			C150,115.9,151.6,117.5,151.6,119.4z"/>
	</g>
</g>
</svg>
